<svg xmlns="http://www.w3.org/2000/svg" viewBox="0 0 489.99 391.14"><defs><style>.cls-1{fill:#264d59;}.cls-2{fill:#43978d;}.cls-3{fill:#308695;}.cls-4{fill:#f9ad6a;}.cls-5{fill:#d46c4e;}.cls-6{fill:#d45769;}.cls-7{fill:#e69d45;}.cls-8{fill:#f9e07f;}.cls-9{fill:#fbb040;}.cls-10{fill:#dbd4c8;}.cls-11{fill:#6d6e71;}.cls-12{fill:#cec3ae;}</style></defs><g id="Layer_2" data-name="Layer 2"><g id="Layer_1-2" data-name="Layer 1"><polygon class="cls-1" points="419.77 390.86 420.55 364.76 369.52 214.52 433.87 367.88 489.99 391.14 419.77 390.86"/><polygon class="cls-2" points="419.55 364.76 358.23 287.24 368.52 214.52 419.55 364.76"/><polygon class="cls-3" points="356.23 287.24 334.15 274.04 337.99 236.48 356.23 287.24"/><polygon class="cls-4" points="367.52 214.52 357.23 287.24 338.99 236.48 367.52 214.52"/><polygon class="cls-3" points="366.52 212.52 210.91 150.6 267.7 150.96 366.52 212.52"/><polygon class="cls-5" points="366.52 213.52 337.99 235.48 210.91 151.6 366.52 213.52"/><polygon class="cls-6" points="336.99 236.48 239.43 206.24 209.91 152.6 336.99 236.48"/><polygon class="cls-3" points="237.43 206.24 158.59 246.56 207.91 152.6 237.43 206.24"/><polygon class="cls-7" points="149.67 295 236.43 208.24 157.59 248.56 149.67 295"/><polygon class="cls-5" points="156.59 248.56 148.67 295 141.83 228.76 156.59 248.56"/><polygon class="cls-8" points="147.67 294 113.95 252.44 115.99 224.52 140.83 227.76 147.67 294"/><polygon class="cls-2" points="114.99 223.52 112.95 251.44 65.91 170.08 114.99 223.52"/><polygon class="cls-1" points="111.82 251.82 61.44 187.36 0 196.28 59.58 160.67 111.82 251.82"/><polygon class="cls-5" points="266.7 149.96 209.91 149.6 223.59 137 266.7 149.96"/><polygon class="cls-4" points="266.7 148.96 223.59 136 215.31 55 266.7 148.96"/><polygon class="cls-1" points="267.7 148.96 216.31 55 260.95 39.52 267.7 148.96"/><polygon class="cls-2" points="281.57 123.32 268.7 149.96 261.95 40.52 281.57 123.32"/><polygon class="cls-1" points="262.95 39.52 288.87 91 282.57 122.32 262.95 39.52"/><polygon class="cls-8" points="215.31 54 259.95 38.52 181.47 0 215.31 54"/><polygon class="cls-5" points="173.63 33.84 180.47 0 214.31 54 173.63 33.84"/><polygon class="cls-1" points="174.87 1.69 108.96 45.86 82.17 51.29 65.03 81.19 88.25 58.97 96.22 60.08 88.06 71.95 112.2 54.37 112.21 50.23 174.87 1.69"/><polygon class="cls-2" points="172.63 33.84 179.47 0 114.67 50.04 172.63 33.84"/><polygon class="cls-4" points="283.57 123.32 289.87 92 331.18 152.03 283.57 123.32"/><polygon class="cls-8" points="332.18 151.03 322.55 117.28 290.87 91 332.18 151.03"/><polygon class="cls-2" points="335.43 71.28 333.18 150.03 323.55 116.28 335.43 71.28"/><polygon class="cls-1" points="334.18 149.03 343.27 69.38 346.96 57.86 347.14 44.36 337.69 25.64 338.23 51.92 336.61 58.94 331.75 47.96 328.51 62.72 336.43 70.28 334.18 149.03"/><polygon class="cls-1" points="264.13 36.73 272.87 9.16 279.35 5.56 297.35 7.36 305.63 20.68 307.21 36.13 284.39 18.16 264.13 36.73"/><polygon class="cls-6" points="296.55 74.88 307.35 37.8 285.39 20.16 296.55 74.88"/><polygon class="cls-2" points="283.43 75.23 295.55 74.88 284.39 20.16 283.43 75.23"/><polygon class="cls-8" points="263.95 38.52 283.39 20.16 282.43 75.23 263.95 38.52"/><path class="cls-9" d="M421.4,36.4,375.33,84.61l25.88-.49Z"/><path class="cls-10" d="M375.27,83.46,420.7,35.88l-25.39.46Z"/><path class="cls-11" d="M376,85.52,401.72,85,417,108.41Z"/><path class="cls-12" d="M402.16,84.5l35.56-29.18L422.33,36.77Z"/><path class="cls-9" d="M438.55,55.84l-35.75,29,15.39,23.58Z"/></g></g></svg>